<?xml version="1.0" encoding="UTF-8" standalone="no"?>
<svg
   xmlns:svg="http://www.w3.org/2000/svg"
   xmlns="http://www.w3.org/2000/svg"
   id="svg1003"
   version="1.1"
   viewBox="0 0 297 210"
   height="210mm"
   width="297mm">
  <defs
     id="defs999" />
  <g
     id="layer1">
    <g
       transform="matrix(1.4607787,0,0,1.4607787,1.4454419,-106.31368)"
       style="font-size:50.79999999999999716px;line-height:0;font-family:sans-serif;white-space:pre;shape-inside:url(#rect825);display:inline;fill:#ebebeb;fill-opacity:1"
       id="text823"
       aria-label=" Pvrizv">
      <path
         id="path835"
         style="line-height:68.57999999999999829px;word-spacing:3.96875000000000000px;fill:#ebebeb;fill-opacity:1"
         d="m 49.574659,179.64108 q -0.4572,-0.6096 -0.4572,-1.3208 0.0508,-0.6604 0.3048,-1.3208 0.254,-0.6096 0.6096,-1.2192 0.4064,-0.6096 0.6604,-1.0668 4.8768,-8.382 9.7028,-16.6624 4.826,-8.3312 9.7028,-16.7132 0.1016,-0.254 0.1524,-0.508 0.1016,-0.254 0.254,-0.762 -1.4224,0.3556 -2.794,0.6604 -1.3208,0.254 -2.6416,0.5588 -0.508,0.1016 -0.9652,0.254 -0.4064,0.1016 -0.8128,0.1016 -0.4064,0 -0.9144,0.1016 -0.4572,0.0508 -0.8636,0.0508 -0.3556,-0.0508 -0.5588,-0.254 -0.2032,-0.254 -0.1016,-0.8128 0.2032,-1.016 1.0668,-1.3716 0.8636,-0.4064 1.6764,-0.6604 1.778,-0.6096 3.556,-1.2192 1.778,-0.6604 3.5052,-1.1176 1.8288,-0.4572 3.048,-1.524 1.27,-1.1176 2.1336,-2.6924 3.3528,-5.8928 6.7056,-11.7348 3.3528,-5.8928 6.7056,-11.8364 0.254,-0.5588 0.4064,-1.0668 0.1524,-0.5588 0.5588,-0.9652 0.4064,-0.4572 0.914399,-0.8636 0.508,-0.4064 1.2192,-0.6604 0.508,-0.1016 0.762,0 0.254,0.1016 0.3048,0.3556 0.1016,0.2032 0.1016,0.508 0,0.254 0,0.4572 -0.2032,0.5588 -0.7112,1.3208 -0.4572,0.7112 -0.8636,1.3208 -3.200399,5.4864 -6.451599,10.922 -3.2004,5.4356 -6.5024,10.922 l -0.762,1.3716 q -0.9144,1.778 -0.5588,2.286 0.3556,0.508 2.2352,-0.1524 6.4008,-2.286 12.649199,-4.9784 6.2484,-2.7432 12.446002,-6.4516 3.3528,-1.9304 6.35,-4.064 3.048,-2.1844 5.842,-4.8768 0.1524,-0.1524 0.3048,-0.3048 0.1524,-0.1524 0.3556,-0.3048 4.9276,-5.0292 4.7752,-8.128 -0.1016,-3.1496 -4.5212,-4.7752 -2.4384,-0.8636 -5.334,-0.9652 -2.8956,-0.1524 -6.0452,0.1016 -9.144002,0.8636 -18.288001,3.8608 -9.144,2.9464 -18.5928,8.4836 -4.318,2.54 -8.0772,5.7404 -3.7592,3.1496 -6.9088,7.0612 -1.016,1.27 -1.6764,2.3876 -0.6096,1.0668 -0.9652,2.1336 -0.3556,1.016 -0.508,2.0828 -0.1016,1.0668 0,2.286 -0.0508,0.254 -0.1016,0.9144 -0.0508,0.6604 -0.4572,1.0668 -0.4572,0.6096 -1.27,0.762 -0.8128,0 -1.27,-0.254 -0.4064,-0.3048 -0.5588,-0.762 -0.1016,-0.4572 -0.0508,-1.016 0.1016,-0.6096 0.254,-1.1684 0.5588,-1.778 1.27,-3.556 0.762,-1.778 1.8796,-3.5052 3.0988,-4.826 7.4676,-8.5344 4.4196,-3.7592 9.4488,-6.8072 8.0772,-4.8768 16.1036,-7.9248 8.026399,-3.048 16.154401,-4.5212 5.08,-0.8636 9.8044,-1.1684 4.7244,-0.3048 8.7884,0.9144 1.27,0.3556 2.3876,0.8636 1.1684,0.508 2.032,1.27 0.8636,0.762 1.3208,1.9304 0.4572,1.1176 0.3556,2.6924 -0.1016,1.4224 -0.6604,2.794 -0.508,1.3716 -1.6256,2.8448 -2.8956,3.556 -6.35,6.4516 -3.4036,2.8956 -7.2644,5.4356 -7.2644,4.7244 -14.681202,8.128 -7.416799,3.3528 -15.036799,6.096 -0.8636,0.3048 -1.6764,0.6096 -0.8128,0.3048 -1.6256,0.6096 -1.016,0.3556 -1.778,0.9144 -0.762,0.508 -1.4224,1.524 -1.1684,2.032 -2.4384,4.064 -1.27,1.9812 -2.4384,3.9624 -4.0132,7.0612 -7.9756,14.0208 -3.9624,6.9596 -7.9756,13.97 -0.1524,0.3048 -0.508,0.9652 -0.3048,0.7112 -0.7112,1.3208 -0.4064,0.6096 -0.8128,0.9652 -0.4064,0.4064 -0.7112,0.1524 z" />
      <path
         id="path837"
         style="line-height:68.57999999999999829px;word-spacing:3.96875000000000000px;fill:#ebebeb;fill-opacity:1"
         d="m 77.367021,164.24868 q -0.4572,0.254 -0.6604,0 -0.1524,-0.254 -0.2032,-0.762 0,-0.508 0.0508,-1.0668 0.0508,-0.5588 0.1016,-0.9144 0.1016,-1.27 0.3048,-2.54 0.254,-1.3208 0.508,-2.6416 0.508,-2.4892 0.9652,-4.9276 0.508,-2.4892 1.1176,-5.0292 0.1524,-0.4572 0.6096,-1.0668 0.508,-0.6604 0.9144,-0.9144 0.508,-0.254 1.0668,-0.254 0.5588,0 1.016,0.2032 0.4572,0.1524 0.7112,0.4064 0.3048,0.254 0.254,0.5588 -0.3556,0.8636 -0.762,1.6764 -0.4064,0.762 -0.8636,1.6256 -0.4064,0.8128 -0.8636,1.8796 -0.4064,1.016 -0.7112,2.3876 -0.1524,0.5588 -0.4064,1.4224 -0.2032,0.8636 -0.4064,1.6764 -0.2032,0.8128 -0.3048,1.3716 -0.0508,0.5588 0.1016,0.4572 1.4224,-1.3716 2.3368,-2.8448 0.9652,-1.4732 1.8288,-2.8448 0.9144,-1.4224 1.9304,-2.6416 1.0668,-1.27 2.6416,-2.1844 0.6604,-0.3556 0.762,-0.2032 0.1016,0.1016 0,0.4064 -1.3208,2.1336 -2.6416,4.2164 -1.27,2.032 -2.54,4.1656 -0.6096,1.016 -1.1684,2.0828 -0.5588,1.0668 -1.3208,2.1336 -0.762,1.0668 -1.8288,2.1336 -1.016,1.016 -2.54,2.032 z" />
      <path
         id="path839"
         style="line-height:68.57999999999999829px;word-spacing:3.96875000000000000px;fill:#ebebeb;fill-opacity:1"
         d="m 95.403401,143.06508 q 1.3208,-0.2032 1.9812,0.2032 0.7112,0.4064 1.1176,1.0668 0.4064,0.6604 0.6096,1.3716 0.254,0.7112 0.6604,1.1684 1.015999,1.2192 2.539999,1.4732 1.524,0.2032 3.6068,-0.3556 0.508,-0.1524 1.4732,-0.6096 0.9652,-0.4572 1.8288,-0.8128 0.8636,-0.3556 1.3208,-0.4064 0.508,-0.1016 0.1016,0.508 -3.6068,3.3528 -7.2644,3.7592 -3.606799,0.3556 -7.061199,-1.5748 -0.1016,-0.3048 -0.4572,0.1524 -0.3556,0.4572 -0.8128,1.27 -0.4572,0.762 -0.9144,1.7272 -0.4572,0.9144 -0.762,1.524 -0.5588,1.1176 -1.1176,2.286 -0.5588,1.1176 -1.3208,2.1844 -0.762,1.0668 -1.777999,2.032 -1.016,0.9144 -2.4384,1.6764 -0.4572,0.1524 -0.6096,-0.0508 -0.1016,-0.2032 -0.0508,-0.508 0.1016,-0.3556 0.254,-0.7112 0.1524,-0.4064 0.254,-0.6096 0.762,-2.1844 1.8796,-4.318 1.1176,-2.1844 2.387599,-4.4704 0.4572,-0.8636 0.9652,-2.1336 0.508,-1.27 1.0668,-2.4892 0.5588,-1.27 1.1684,-2.1844 0.6604,-0.9652 1.3716,-1.1684 z" />
      <path
         id="path841"
         style="line-height:68.57999999999999829px;word-spacing:3.96875000000000000px;fill:#ebebeb;fill-opacity:1"
         d="m 112.37616,159.47348 q 0.4572,-0.1016 1.27,-0.762 0.8636,-0.7112 1.8288,-1.6256 0.9652,-0.9652 1.9304,-1.9812 1.016,-1.016 1.778,-1.778 0.8128,-0.8128 1.2192,-1.1684 0.4572,-0.3556 0.3556,0.0508 -0.254,1.0668 -1.3716,2.5908 -1.0668,1.524 -2.4892,3.048 -1.3716,1.4732 -2.794,2.6416 -1.4224,1.1176 -2.3368,1.4224 -1.1684,0.3556 -1.8796,0.1016 -0.7112,-0.254 -0.762,-1.27 0,-1.1684 0,-2.3368 0.0508,-1.2192 0.4572,-2.4384 1.016,-2.9972 2.032,-5.334 1.0668,-2.3876 1.9812,-5.08 0.3556,-0.8636 0.9144,-1.2192 0.6096,-0.4064 1.27,-0.4064 0.254,0 0.6096,0.0508 0.4064,0 0.7112,0.1016 0.3048,0.1016 0.4572,0.254 0.2032,0.1524 0.1524,0.3556 -0.254,0.8128 -1.0668,2.1336 -0.8128,1.3208 -1.9812,3.4544 -1.1684,2.032 -1.8796,3.7592 -0.7112,1.6764 -0.9652,2.9972 -0.1016,0.4064 -0.1524,0.8636 0,0.4572 0,0.8636 0.0508,0.3556 0.2032,0.6096 0.2032,0.2032 0.508,0.1016 z m 8.2296,-19.2024 q 0.1524,0.254 -0.254,0.7112 -0.4064,0.4572 -1.0668,0.9144 -0.6604,0.4064 -1.4732,0.7112 -0.762,0.254 -1.3716,0.0508 -0.2032,-0.5588 -0.508,-1.1684 -0.254,-0.6096 0.0508,-1.1684 0.3048,-0.5588 1.2192,-1.1684 0.9144,-0.6096 1.524,-0.7112 0.5588,-0.1016 1.1176,0.254 0.5588,0.3048 0.762,1.5748 z" />
      <path
         id="path843"
         style="line-height:68.57999999999999829px;word-spacing:3.96875000000000000px;fill:#ebebeb;fill-opacity:1"
         d="m 90.755994,192.13788 q -0.254,-0.1016 -0.0508,-0.5588 0.1524,-0.4064 0.508,-0.9652 0.3556,-0.5588 0.8128,-1.1176 0.4572,-0.5588 0.762,-0.9652 2.9972,-3.9116 6.6548,-7.2644 3.657596,-3.3528 7.569196,-6.4516 4.1656,-3.302 8.382,-6.4008 4.2164,-3.0988 8.5344,-6.1468 2.8956,-2.032 4.3688,-4.318 1.4732,-2.286 2.032,-4.7752 0.4064,-1.9304 -0.5588,-2.4384 -0.9144,-0.508 -3.0988,0.3556 -1.016,0.4064 -2.0828,1.016 -1.016,0.5588 -2.032,0.9652 -0.4572,0.254 -1.1176,0.3556 -0.6604,0.0508 -0.762,-0.2032 -0.2032,-0.3556 -0.2032,-0.9652 0.0508,-0.6096 0.3556,-1.016 1.2192,-1.5748 2.54,-3.048 1.3208,-1.4732 2.6416,-2.9464 0.6604,-0.762 1.3716,-1.4732 0.762,-0.762 1.6256,-1.6256 0.3048,-0.3556 0.508,-0.6604 0.254,-0.3556 0.1016,-0.4572 -0.1016,-0.1524 -0.6604,0.1016 -0.508,0.254 -1.7272,1.0668 -0.6604,0.4572 -1.3716,0.8636 -0.7112,0.4064 -1.3716,0.7112 -0.6604,0.3048 -1.2192,0.4064 -0.508,0.1016 -0.8128,-0.0508 -1.1684,-0.9652 -0.7112,-1.8288 0.4572,-0.8636 1.6764,-1.524 1.2192,-0.7112 2.794,-1.2192 1.6256,-0.508 2.7432,-0.8128 0.6096,-0.1524 1.524,-0.4064 0.9144,-0.254 1.7272,-0.4572 0.8636,-0.2032 1.524,-0.254 0.6604,-0.0508 0.8128,0.1524 -0.0508,1.4224 -1.1176,2.6416 -1.016,1.1684 -2.1336,2.3876 -1.1684,1.2192 -2.3368,2.54 -1.1176,1.27 -2.4384,2.794 1.016,-0.1016 2.0828,-0.254 1.0668,-0.2032 1.9812,-0.1524 0.9144,0 1.5748,0.3556 0.6604,0.3048 0.8636,1.1684 0.3556,1.4732 0.1524,3.2512 -0.1524,1.778 -0.2032,3.7084 0.9144,-0.4064 2.1844,-0.9144 1.27,-0.5588 2.6416,-1.1176 1.4224,-0.6096 2.7432,-1.1176 1.3716,-0.5588 2.3876,-0.9144 0.3556,-0.1524 0,0.4572 -0.3556,0.5588 -1.016,1.0668 -0.508,0.3556 -0.8636,0.5588 -0.3048,0.1524 -0.8636,0.4572 -0.254,0.1016 -0.6604,0.3048 -0.4064,0.2032 -0.7112,0.3556 -4.1148,2.032 -7.6708,4.5212 -3.5052,2.4892 -6.7056,6.0452 -6.604,7.4676 -14.2748,13.6144 -7.6708,6.1976 -16.205196,11.7348 -0.4064,0.254 -0.6096,0.3556 -0.254,0.1524 -0.762,0.3556 -1.1684,0.4064 -1.8288,0.1524 z m 30.429196,-25.7048 q -2.2352,1.27 -4.7752,2.9972 -2.4892,1.7272 -4.9784,3.6576 -2.4892,1.9304 -4.826,3.9624 -2.3876,2.032 -4.2672,3.8608 -1.9304,1.8796 -3.251196,3.4544 -1.3208,1.5748 -1.778,2.5908 6.756396,-4.572 12.699996,-9.6012 5.9436,-4.9784 11.176,-10.922 z" />
      <path
         id="path845"
         style="line-height:68.57999999999999829px;word-spacing:3.96875000000000000px;fill:#ebebeb;fill-opacity:1"
         d="m 141.26389,164.24868 q -0.4572,0.254 -0.6604,0 -0.1524,-0.254 -0.2032,-0.762 0,-0.508 0.0508,-1.0668 0.0508,-0.5588 0.1016,-0.9144 0.1016,-1.27 0.3048,-2.54 0.254,-1.3208 0.508,-2.6416 0.508,-2.4892 0.9652,-4.9276 0.508,-2.4892 1.1176,-5.0292 0.1524,-0.4572 0.6096,-1.0668 0.508,-0.6604 0.9144,-0.9144 0.508,-0.254 1.0668,-0.254 0.5588,0 1.016,0.2032 0.4572,0.1524 0.7112,0.4064 0.3048,0.254 0.254,0.5588 -0.3556,0.8636 -0.762,1.6764 -0.4064,0.762 -0.8636,1.6256 -0.4064,0.8128 -0.8636,1.8796 -0.4064,1.016 -0.7112,2.3876 -0.1524,0.5588 -0.4064,1.4224 -0.2032,0.8636 -0.4064,1.6764 -0.2032,0.8128 -0.3048,1.3716 -0.0508,0.5588 0.1016,0.4572 1.4224,-1.3716 2.3368,-2.8448 0.9652,-1.4732 1.8288,-2.8448 0.9144,-1.4224 1.9304,-2.6416 1.0668,-1.27 2.6416,-2.1844 0.6604,-0.3556 0.762,-0.2032 0.1016,0.1016 0,0.4064 -1.3208,2.1336 -2.6416,4.2164 -1.27,2.032 -2.54,4.1656 -0.6096,1.016 -1.1684,2.0828 -0.5588,1.0668 -1.3208,2.1336 -0.762,1.0668 -1.8288,2.1336 -1.016,1.016 -2.54,2.032 z" />
    </g>
  </g>
</svg>
