<?xml version="1.0" encoding="UTF-8"?>
<!-- Generator: Adobe Illustrator 21.0.0, SVG Export Plug-In . SVG Version: 6.00 Build 0)  -->
<svg version="1.1" id="Слой_1" xmlns="http://www.w3.org/2000/svg" xmlns:xlink="http://www.w3.org/1999/xlink" x="0px" y="0px" viewBox="0 0 512 214" enable-background="new 0 0 512 214" xml:space="preserve">
<g>
	<g id="You">
		<path id="u_2_" fill="#FFFFFF" d="M191.1,173.1h-19.4v-11.2c-7.4,8.5-13.6,12.7-20.4,12.7c-5.9,0-10.1-2.9-12.2-7.9    c-1.2-3.1-2.1-8-2.1-15V69.8h19.4v76.7c0,4.3,0,6.1,0,7.2c0.4,2.9,1.6,3.9,4.2,3.9c3.7,0,7.1-3.3,11.1-9V69.8h19.4V173.1z"/>
		<path id="o_2_" fill="#FFFFFF" d="M122.7,103.6c0-11-2.2-19.3-6.1-24.5c-5.2-7.1-13.3-9.9-21.5-9.9c-9.3,0-16.3,2.9-21.5,9.9    c-4,5.2-6.1,13.6-6.1,24.6v36.7c0,10.9,1.9,18.5,5.9,23.7c5.2,7.1,13.5,10.7,21.7,10.7s16.7-3.7,21.9-10.7    c3.9-5.2,5.7-12.8,5.7-23.7V103.6z M103.2,142.4c1,10.2-2.1,15.3-8.2,15.3c-6,0-9.2-5.1-8.2-15.3v-40.9c-1-10.2,2.1-15,8.2-15    c6,0,9.2,4.8,8.2,15V142.4z"/>
		<path id="y_2_" fill="#FFFFFF" d="M46,116.9v56.2H25.6v-56.2c0,0-21.2-68.9-25.6-81.8h21.5L35.8,89l14.3-53.9h21.5L46,116.9z"/>
	</g>
	<g id="Tube">
		<g>
			<path fill="#FFFFFF" d="M390.9,86.3c-3.1,0-6.5,1.6-9.6,4.7v61.9c3.1,3.1,6.6,4.7,9.6,4.7c5.3,0,7.8-3.9,7.8-14.1v-44     C398.6,89.3,396.2,86.3,390.9,86.3z"/>
			<path fill="#FFFFFF" d="M467.1,98.6c0-9.4-2.5-12.3-8.6-12.3s-8.8,2.6-8.8,12.2v11.3h17.4V98.6z"/>
			<path fill="#FFFFFF" d="M509,46.2c0,0-3-21-12.2-30.2C485.2,4,472.2,3.9,466.3,3.2c-42.7-3.1-106.8-3.1-106.8-3.1h-0.1     c0,0-64.1,0-106.8,3.1c-5.9,0.7-19,0.8-30.6,12.9c-9.2,9.2-12.2,30.2-12.2,30.2s-3.1,24.6-3.1,49.2v23.1     c0,24.6,3.1,49.2,3.1,49.2s3,21,12.2,30.2c11.7,12.1,26.9,11.8,33.6,13c24.4,2.4,103.7,3.1,103.7,3.1s64.1-0.1,106.8-3.2     c5.9-0.7,19-0.8,30.6-12.9c9.2-9.2,12.2-30.2,12.2-30.2s3.1-24.6,3.1-49.2V95.4C512.1,70.9,509,46.2,509,46.2z M273.9,173.1     h-20.4V55.5H232V36.1h64.4v19.4h-22.5V173.1z M347.5,173.1h-19.4v-11.2c-7.4,8.5-13.6,12.7-20.4,12.7c-5.9,0-10.1-2.9-12.2-7.9     c-1.2-3.1-2.1-8-2.1-15V70.9h19.4v75.6c0,4.3,0,6.1,0,7.2c0.4,2.9,1.6,3.9,4.2,3.9c3.7,0,7.1-3.3,11.1-9V70.9h19.4V173.1z      M418.1,142.4c0,9.4-0.8,16.2-2,20.4c-2.5,7.6-7.9,11.6-15.2,11.6c-6.5,0-13.3-4-19.5-11.7v10.3h-18.4v-137h18.4v44.7     c5.9-7.4,12.8-11.6,19.5-11.6c7.4,0,12.4,4.3,14.8,11.9c1.2,4.1,2.5,10.7,2.5,20.4V142.4z M458.6,157.5c4.6,0,7.3-2.5,8.3-7.5     c0.2-1,0.1-5.4,0.1-12.9h19.4v2.9c0,5.9-0.5,10.2-0.6,12.1c-0.6,4.1-2,7.8-4.3,11c-5.1,7.5-12.7,11-22.4,11s-17.1-3.5-22.4-10.4     c-3.9-5.1-6.4-12.7-6.4-23.6v-35.8c0-10.9,2.2-19.3,6.2-24.5c5.3-7,12.7-10.7,22.2-10.7c9.3,0,16.7,3.7,21.9,10.7     c3.9,5.2,6,13.2,6,24v20.9h-36.8v18.4C449.6,152.8,452.3,157.5,458.6,157.5z"/>
		</g>
	</g>
</g>
</svg>