<?xml version="1.0" encoding="utf-8"?>
<!-- Generator: Adobe Illustrator 28.1.0, SVG Export Plug-In . SVG Version: 6.00 Build 0)  -->
<svg version="1.1" id="Layer_1" xmlns="http://www.w3.org/2000/svg" xmlns:xlink="http://www.w3.org/1999/xlink" x="0px" y="0px"
	 viewBox="0 0 1080 1080" style="enable-background:new 0 0 1080 1080;" xml:space="preserve">
<style type="text/css">
	.st0{fill:#F69240;}
	.st1{fill:#F8D49A;}
	.st2{fill:#50A2FA;}
	.st3{fill:#65E9DD;}
	.st4{fill:#6F32D8;}
	.st5{fill:#83FAAF;}
	.st6{fill:#EB5E1D;}
	.st7{fill:#F8F8F8;}
</style>
<g>
	<g>
		<path class="st0" d="M785.96,386.66c-35.65,42.28-90.59-11.81-48-44.47c21.02-13.92,69.9-97.48,99.49-72.69
			C900,321.88,806.85,365.16,785.96,386.66z"/>
		<path class="st1" d="M689.97,188.43c-17.81,29.8-36.66,73.04-49.87,105.48c-14.58,20.74,31.44,46.51,45.64,30.8
			c7.33-12.49,30.73-39.35,38.22-52.11C732.13,257.33,782,197.69,689.97,188.43z"/>
		<path class="st1" d="M677.41,191.46c-8.99,25.48-28.31,72.03-37.31,97.32c-5.25,34.77-62.04,13.35-84.94,11.29
			c55.03-47.11,63.94-94.64,14.37-146.69C596.01,158.71,698.02,149.2,677.41,191.46z"/>
		<path class="st2" d="M209.43,322.9c20.33-11.83,51.54,30.24,61.87,40.15c30.84,30.8,0.59-6.45,21.22,34.73
			c29.02,20.12,27.37,51.22-13.52,49.74c-17.45-7.58-33.66-16.61-51.42-23.24C175.03,404.63,171.2,369.38,209.43,322.9z"/>
		<path class="st3" d="M395.19,331.33c-16.26,68.75-99.4-16.56-124.86-56.22c-15.12-23.56,25.19-39.14,38.87-44.29
			C343.29,217.99,344.36,269.73,395.19,331.33z"/>
		<path class="st4" d="M287.92,470.33"/>
		<path class="st4" d="M124.95,510.92c0.4,0.55,58.78-106.42,59.01-107.06c2.52-6.75-51.76,19.17-46.62,15.7
			c0.32,0.05,0.56-0.62,0.79-1.11c0.12-0.25,0.35-0.43,0.62-0.48c7.05-1.25,14.17,3.03,20.54,5.05c0.05,0.02,0.1,0.04,0.15,0.06
			c6.11,3.32-2.32-0.62,3.91,2.48c0.4,0.2,18.38-49.15,18.13-17.11l-26.24,14.19c9.43-13.39-54.24,11.58-1.25-4.17
			c112.03-33.31,137.79,64.94,138.5,64.69"/>
		<path class="st4" d="M272.01,490c-2.12,1.37-1.83-1.24-3.8-0.12c-0.13,0.07-0.28,0.12-0.43,0.12
			c-29.33-0.01-67.61,6.65-96.46,3.17c-0.62-0.07-0.94-0.77-0.62-1.3l3.51-5.75c0.17-0.28,0.17-0.63-0.02-0.91"/>
		<path class="st5" d="M395.19,188.43c-7.85-19.11,28.33-25.93,40.79-28.75c128.52-43.4-28.85,63.95,86.21,127.48
			c-17.14,4.56-72.23,37.88-79.45,12.9C430.48,265.87,394.91,220.88,395.19,188.43z"/>
		<path class="st5" d="M346.93,246.15c-4.49-8.85-34.91-34.61-21.24-42.25c13.9-7.45,52.66-18.22,72.68-8.3
			c9.44,30.53,73.31,158.39-7.94,123.03C375.93,294.47,361.43,270.31,346.93,246.15z"/>
		<path class="st1" d="M658.37,319.04c-0.01-0.01-0.02-0.01-0.03-0.02c0,0,0,0-0.01,0C658.33,319.02,658.37,319.04,658.37,319.04z"
			/>
		<path class="st3" d="M295.8,307.58c-21.7-26.24-50.37-53.18-73.81-0.57c-13.37,30.01,73.86,98.43,115.19,90.7
			C380.09,389.69,321.37,324.55,295.8,307.58z"/>
		<path class="st1" d="M578.47,159.6c-0.13-0.16-0.27-0.31-0.4-0.47c0.1,0.18,0.2,0.36,0.29,0.54
			C578.36,159.67,578.47,159.6,578.47,159.6z"/>
		<path class="st0" d="M814.42,261.57c-16.53,37.88-57.98,66.09-85.57,98.04c-72.37,6.08-3.4-85.98,8.8-110.3
			c25.1-50.02,51.18,4.09,63.37-1.27C803.95,246.75,811.62,261.06,814.42,261.57z"/>
		<path class="st4" d="M861.12,494c-49.26,11.49-92.99-14.14-39.72-53.38c62.39-45.96,99.68-44.63,97.2,21.26
			C927.1,498.43,882.22,493.53,861.12,494z"/>
		<path class="st6" d="M763.5,417.43c11.36-31.1,69.88-66.86,97.2-83.89c15.22,11.7,52.97,59.97,25.51,68.62
			C858.75,410.96,784.56,473.71,763.5,417.43z"/>
	</g>
</g>
<g>
	<path class="st7" d="M948.09,563.68c-37.06-0.28-74.13-0.77-111.19-0.7c-11.01,0.02-21.59-0.29-24.55-13.25
		c-3.14-13.76,5.27-20.93,17.06-25.23c26.19-2.98,52.49-2.31,78.78-1.54c-26.3-0.76-52.59-1.44-78.78,1.54
		c37.72,0.13,75.43,0.26,113.15,0.39c0.5-0.39,0.99-0.78,1.49-1.17c17.17-1.77,19.04-14.07,18.12-27.4
		C912.56-6.65,169.89-6.23,117.99,493.72c-1.19,13.53-0.09,25.37,15.29,30.27c31.32,0.23,62.63,0.62,93.95,0.63
		c14.3,0,28.45,1.82,29.12,19.36c0.68,18.07-13.44,19.3-27.49,19.12c-31.51,0.14-63.24-1.45-94.66,0.13
		c-40.78,8.16,10.02,127.34,19.89,153.09c20.55,43.32,48.25,83.23,81.32,117.83c0.44,0,0.66,0.22,0.65,0.66
		c51.04,50.53,112.67,88.26,181.48,108.95l0.02-0.01c14.06,4.26,28.43,7.49,42.89,10.04c0.29-0.11,0.48-0.03,0.58,0.25
		c55.12,9.16,111.93,10.1,166.51-1.53l-0.07,0.08c2.41-0.23,4.82-0.81,7.24-0.73c63.39-16.26,122.13-43.2,172.72-85.16
		c9.89-8,20.32-17.13,29.01-25.63c3.45-3.33,6.82-6.74,10.25-10.09c0.5-0.5,1-1,1.51-1.5l-0.06,0.05
		c12.61-12.97,23.92-27.06,34.66-41.6c-0.03-0.32,0.11-0.5,0.43-0.55c41.66-55.69,67.35-120.97,77.45-189.54
		C962.76,584.42,963.78,570.81,948.09,563.68z M910.83,461.95c8.38,36.19-30.42,25.54-52.07,25.3c0,0.07,0,0.14,0,0.21
		c-16.35,0-62.78,7.21-55.3-23.96c3.22-13.43,23.09-18.75,33.72-24.13c15.11-7.65,30.23-15.32,45.46-22.74
		C908.03,404.28,909.74,445.01,910.83,461.95z M862.11,342.67c15.04,9.66,19.33,26.39,24.79,41.71c3.25,9.12-6.55,12.49-12.83,15.9
		c-22.89,12.41-45.57,25.37-69.24,36.1c-18.14,8.22-24.9-4.77-28.64-17.89c-0.02-9.51,4.35-14.56,9.75-18.91
		c22.54-18.17,45.07-36.35,67.78-54.3C855.95,343.53,860.49,341.63,862.11,342.67z M849.91,316.74c-0.17-2.73-1.45-5.23-4.29-6.81
		C848.46,311.51,849.75,314.01,849.91,316.74z M826.43,288.79c0-0.01-0.01-0.03-0.01-0.04c-0.21-0.81-0.5-1.52-0.84-2.14
		c0.35,0.62,0.63,1.34,0.84,2.14c0.48,0.49,0.95,0.98,1.43,1.47c1.58,1.31,3.06,2.77,4.36,4.4l-0.07-0.07
		c0.51,0.51,1.01,1.02,1.52,1.53c0,0-0.05-0.01-0.06-0.01c0,0,0,0-0.01,0c3.39,4.34,6.78,8.69,10.17,13.03h-0.01
		c2.66,6.01,7.15,11.88,1.45,18.55l0.07-0.03c-0.49,0.52-0.97,1.03-1.46,1.55c-0.48,0.48-0.96,0.96-1.43,1.43
		c-0.5,0.48-1,0.96-1.49,1.45c0-0.02,0.01-0.03,0.01-0.05c-2.9,2.43-5.81,4.86-8.71,7.28c0.01,0,0.02,0,0.03,0
		c-3.14,3.15-6.83,5.66-10.14,8.63c-2.41,1.98-4.81,3.95-7.22,5.93c-0.5,0.48-1.01,0.95-1.51,1.43l0.03-0.04
		c-2.41,1.95-4.9,3.82-7.25,5.85l0.02-0.02c-0.55,0.46-1.1,0.93-1.65,1.39l0.06-0.13c-2.48,1.93-4.92,3.9-7.28,5.98l0.08-0.12
		c-1.06,0.91-2.13,1.82-3.19,2.73l0.18-0.1c-2.06,1.39-3.95,2.98-5.74,4.7c0,0-0.02-0.05-0.03-0.05c-2.36,1.96-4.72,3.93-7.09,5.89
		c-0.52,0.49-1.06,0.96-1.58,1.45l0.02-0.07c0,0,0-0.01,0.01-0.01c-4.35,2.92-8.7,5.84-13.04,8.76c0.02-0.02,0.03-0.04,0.05-0.06
		c-3.79,0-7.57,0-11.36,0c0.01,0.02,0.02,0.03,0.04,0.05c-3.4-2.38-6.8-4.75-10.2-7.13c-0.5-0.5-0.97-1.03-1.46-1.54l0.03-0.03
		c-11.63-20.81,7.72-29.68,16.43-42.65c1.2-2.11,2.47-4.16,3.8-6.15c-1.29,1.96-2.53,3.97-3.69,6.04
		c10.92-11.76,21.84-23.52,32.76-35.29c-4.87,3.34-9.42,6.99-13.63,10.94c4.2-3.96,8.75-7.61,13.63-10.94h-0.03
		c2.32-2.55,4.85-4.9,7.17-7.45C808.16,291.56,813.85,279.61,826.43,288.79z M747.83,330.33c0.87,0.12,1.65,0.16,2.34,0.12
		C749.48,330.49,748.7,330.45,747.83,330.33z M783.16,295.32c1.35-1.8,2.32-3.94,2.8-6.54
		C785.62,291.58,784.59,293.64,783.16,295.32z M814.42,283.58c-4.12,1.22-8.34,3.95-11.05,7.17
		C806.08,287.53,810.3,284.79,814.42,283.58z M803.67,266.39c0.26,1.7-0.6,3.68-3.38,6.21
		C802.94,270.17,803.86,268.15,803.67,266.39z M752.48,238.21c-0.52,0.46-0.97,0.97-1.38,1.52
		C751.51,239.17,751.96,238.67,752.48,238.21z M748.24,248.07c3.54-4.12,7.07-8.24,10.61-12.36c4.14,0.34,8.28,0.68,12.42,1.02
		c1.91,1.45,3.82,2.89,5.73,4.33l-0.09-0.14c0.55,0.49,1.08,0.98,1.62,1.47c3.75,0.56,6.33,1.7,8.34,3.31
		c-2.3-1.64-5.1-2.72-8.34-3.31c-0.01,0-0.02,0-0.03,0s-0.01,0-0.02,0c4.89,4.3,9.77,8.6,14.66,12.9c-0.23-0.87-0.5-1.69-0.81-2.46
		c0.71,1.24,1.44,2.55,2.25,3.94l-0.01-0.01c1.29,1.6,3.08,2.95,4.74,4.27c-0.66-0.44-1.35-0.87-2.08-1.29
		c1.02,4.29,2.03,8.58,3.05,12.87c-1.44,1.93-2.89,3.87-4.33,5.8l0.05-0.04c-0.47,0.52-0.95,1.03-1.42,1.55
		c-0.47,0.49-0.95,0.98-1.42,1.46l-0.02,0.02c-2.38,2.4-4.74,4.83-7.08,7.27l-0.12,0.12c-3.94,4.28-7.88,8.56-11.81,12.84
		c0.73-0.29,1.45-0.6,2.13-0.93c-1.16,0.76-2.33,1.54-3.43,2.42c-5.53,6.03-11.06,12.07-16.59,18.1c-0.92,1.03-1.89,2.02-2.83,3.03
		l-0.11,0.11c-1.83,1.98-3.66,3.95-5.5,5.92v-0.01l-0.01,0.02c-3.28,3.97-6.55,7.94-9.83,11.9c-0.45,0.56-0.95,1.08-1.42,1.62
		c-2.46,2.34-4.92,4.68-7.39,7.01l0.01-0.02c-8.65,3.61-16.7,2.22-24.3-2.92l0.04,0.09c-0.52-0.5-1.04-1-1.56-1.5l0.05,0.01
		c-12.48-14.64-0.85-25.69,5.59-37.52c0.47-1.66,1.03-3.26,1.64-4.82c-0.6,1.53-1.14,3.11-1.59,4.74
		c5.34-8.19,10.67-16.37,16.01-24.56l-0.01,0.01c-2.78,2.39-5.28,4.96-7.46,7.74c2.18-2.78,4.67-5.35,7.46-7.74
		c0.98-1.45,1.95-2.9,2.93-4.34l-0.02,0.02c1.1-1.85,2.2-3.69,3.3-5.54l-0.09,0.04c1.32-2.06,2.65-4.13,3.97-6.19
		c0.59-0.93,1.17-1.86,1.76-2.79l-0.1,0.15c0.93-1.52,1.85-3.04,2.78-4.54c0.98-1.44,1.96-2.88,2.94-4.33l-0.03,0.03
		c0.97-1.46,1.95-2.93,2.92-4.39l-0.03,0.03C746.32,251.01,747.28,249.54,748.24,248.07z M736.99,369.56
		c0.1-0.75,0.26-1.49,0.45-2.21C737.25,368.07,737.09,368.81,736.99,369.56z M734.54,349.49c-0.25,0.21-0.51,0.41-0.81,0.57
		C734.02,349.9,734.29,349.7,734.54,349.49z M740.32,211.73c-2.3-1.6-5.03-2.89-7.45-4.11
		C735.29,208.83,738.03,210.12,740.32,211.73z M732.83,207.59c-3.92-1.99-7.64-4.72-11.4-7.37
		C725.45,202.96,729.28,205.74,732.83,207.59z M706.95,192.46c-3.89-1.06-8.07-1.16-12.72,0.32
		C698.48,190.98,702.75,191.16,706.95,192.46z M673.1,230.14c2.07-4.91,4.13-9.82,6.19-14.73c-2.21,1.17-3.71,2.65-4.7,4.33
		c0.96-1.69,2.44-3.16,4.7-4.33c0.63-2.17,1.7-4.25,2.49-6.38l-0.06,0.07c1.94-3.9,3.89-7.8,5.83-11.7c1.43-1.41,2.86-2.53,4.3-3.41
		c16.59-3,52.79,20.58,50.48,33.64c1.54-2.24,2.42-4.22,2.8-5.97c-0.38,1.77-1.27,3.76-2.83,6.02c-1.45,2.4-2.9,4.8-4.34,7.19
		c-1.19,1.71-2.39,3.42-3.58,5.13c-0.88,1.53-1.86,3-2.77,4.51l0.37,0.08h-0.38c-0.38,0.59-0.76,1.19-1.14,1.78l0.05-0.08
		c-0.96,1.45-1.92,2.9-2.88,4.34c-0.01,0.7-0.02,1.4-0.05,2.08c0.02-0.65,0.02-1.32,0.01-2c-2.07,3.14-4.15,6.27-6.22,9.41
		c2.18-0.21,3.6-0.91,4.53-1.94c-0.92,1.03-2.34,1.74-4.53,1.94c-0.76,1.24-1.53,2.47-2.3,3.7c-0.87,1.49-1.81,2.94-2.7,4.42
		c-0.46,1.94-1.02,3.82-1.68,5.63c0.61-1.73,1.13-3.53,1.54-5.39c-6.66,8.57-12.2,17.85-17.57,27.28c0.02-0.01,0.03-0.03,0.05-0.04
		c3.16-2.58,5.99-5.37,8.44-8.41c-2.43,3.05-5.25,5.84-8.44,8.41c-0.93,1.49-1.87,2.99-2.8,4.48l0.02-0.03
		c-1.95,3.39-3.91,6.78-5.86,10.17c0,0,0,0,0.01,0c-1.45,2.42-2.89,4.84-4.34,7.26c0,0,0,0,0.01,0c-2.31,2.89-4.91,5.02-7.64,6.34
		c1.59-0.82,3.2-1.95,4.82-3.39c-8.55,5.24-16.54,1.54-24.58-1.51c2.67,2.7,5.38,4.61,8.15,5.67c-2.85-0.99-5.62-2.86-8.15-5.67
		c-0.01,0-0.02-0.01-0.03-0.01c-10.52-6.65-16.69-14.74-9.04-27.4c1.13-3.35,2.26-6.69,3.4-10.04c0.01-0.06,0.03-0.12,0.04-0.18
		c5-12.37,10.01-24.75,15.01-37.12c-0.27-0.8-0.45-1.56-0.55-2.29c0.1,0.68,0.28,1.39,0.52,2.13c1.76-4.51,3.53-9.02,5.29-13.53
		c-1.39,1.07-2.62,2.21-3.6,3.45c0.97-1.24,2.2-2.38,3.6-3.45c-0.05-1.04-0.08-2.07-0.07-3.08
		C672.94,228.38,673,229.25,673.1,230.14z M654.09,275.11c1.42-6.11,3.13-12.12,5.65-17.79C657.22,262.99,655.52,269,654.09,275.11z
		 M667.68,180.16c9.86,4.45,0.77,17.23-0.86,24.35c0.08,1.09,0.11,2.15,0.08,3.19c-0.01-0.89-0.07-1.79-0.19-2.73
		c-1.95,5.11-3.9,10.23-5.85,15.34c0.02-0.01,0.04-0.03,0.06-0.04c1.79-1.42,3.14-3,4.11-4.73c-0.93,1.73-2.26,3.32-4.11,4.73
		c-0.96,2.43-1.91,4.86-2.86,7.29l0.05-0.05c-0.96,2.45-1.92,4.91-2.88,7.36l0.04-0.06c-0.6,1.42-1.2,2.84-1.8,4.25l0.09-0.11
		c-0.25,1.04-1.36,1.88-1.19,2.93c-0.98,2.49-1.96,4.99-2.93,7.48l0.04-0.04c-1.98,4.83-3.95,9.66-5.93,14.48
		c0.01-0.01,0.02-0.01,0.04-0.02c-1.17,2.75-2.34,5.5-3.51,8.26l0.05,0.22c-0.87,2.47-1.74,4.93-2.61,7.4l0.11-0.08
		c-1.89,4.92-3.78,9.83-5.68,14.74c-1.75,2.48-3.97,4.64-6.41,6.06c0.75-0.5,1.5-1.08,2.25-1.78c-5.3,0.01-10.6,0.02-15.91,0.03
		c1.92,1.72,3.85,2.83,5.77,3.33c-1.97-0.4-3.93-1.44-5.77-3.33c-13.53-2.85-27.06-5.66-40.59-8.5v0
		c55.18-47.05,56.48-78.75,7.32-130.45v0C609.59,160.87,639.37,167.63,667.68,180.16z M538.9,188.44
		c44.32,0.97,43.8,63.19,0.28,67.37C497.35,251.83,495.26,187.49,538.9,188.44z M435.51,171.58c18.3-4.15,31.65-9.71,50.26-7.59
		c-45.83,46.56-31.92,87.97,22.71,125.39c-17.13,4.56-57.65,22.78-64.87-2.2c-10.55-25.89-21.1-51.79-31.66-77.68
		c0.07,4.59-2.38,7.04-5.29,9.12c5.95-4.8,6.94-8.39,0.91-19.19l0.11-0.43C395.34,178.81,421.11,173.87,435.51,171.58z
		 M343.32,212.98c23.46-15.2,13.41-20.72,45.03-15.39c0.08,0,0.16-0.01,0.23-0.01c-0.07,0-0.14,0.01-0.23,0.01
		c0.79,1.41,1.58,2.81,2.37,4.22c3.18,7.17,6.37,14.33,9.55,21.5c10,23.44,17.73,45.37,27.73,68.81c0.63,11.84,2.08,15.79-5.48,23.6
		c-10.66,5.88-17.32,4.73-32.08-1.17c-14.5-24.16-29-48.32-43.5-72.48C342.46,233.22,329.65,220.62,343.32,212.98z M388.84,197.56
		C389.01,197.55,389.05,197.55,388.84,197.56L388.84,197.56z M382.89,337.17c-0.06,0.98-0.65,1.86-2.14,2.64
		C382.15,339.06,382.77,338.16,382.89,337.17z M306.1,240.3c9.98-5.65,20.55-1.65,23.02,4.82c16.89,27.57,39.91,65.13,50.67,82.7
		c-0.09,1.55,0.54,3.05,1.26,4.47c-0.32-0.51-0.66-1.03-0.98-1.54c-0.6,3.35-1.21,6.69-1.81,10.04
		c-14.74,20.12-30.03,11.41-41.91-4.32l0.01,0.02c-1.61-2.06-3.31-4.04-4.97-6.05c-15.31-17.19-30.62-34.37-45.93-51.56v-0.02
		C271.32,254.96,296.51,251.32,306.1,240.3z M232.98,323.35c1.63-5.26,3.25-10.52,4.88-15.78c9.15-8.61,13.38-24.86,31.16-20.18
		c9.62,10.28,19.24,20.56,28.86,30.84l-0.16,0.25c0.97,1,1.95,2,2.93,3.01l-0.39,0.06c0.29,0.4,2.22,1.87,1.34,1.58
		c5.35,4.28,9.59,9.83,14.47,14.63c7.44,9.99,25.12,22.15,22.89,36.35c-2.13,13.07-18.91,20.93-30.09,15.13
		c-1.16-0.5-2.4-0.89-3.65-1.23c0.83,0.18,1.66,0.36,2.47,0.55c-5.45-4.28-10.9-8.55-16.35-12.83c-3.76-3.05-7.65-5.96-11.42-9
		l0.04,0.05c-2.49-2.15-4.98-4.29-7.47-6.44c-0.4-0.25-0.79-0.5-1.19-0.75c-2.92-2.53-5.85-5.06-8.77-7.59
		c-1.05-0.82-2.07-1.66-3.12-2.47c-2.4-1.89-4.8-3.78-7.2-5.67l-0.14-0.11c-2.86-2.36-5.72-4.73-8.58-7.09
		c-3.4-3.64-8.22-8.74-10.85-13.83C232.75,323.01,232.85,323.18,232.98,323.35z M196.65,368.79c1.56-2,3.27-4.02,5.01-6.08
		c2.81-4.39,5.61-8.78,8.42-13.17c1.05-1.36,2.12-2.7,3.18-4.06c1.33-0.74,2.67-1.48,4-2.22c2.7,0.25,5.6,0.68,8.52,1.36
		c8.17,6.16,16.34,12.31,24.51,18.47l0.03-0.01c3.04,2.32,5.93,4.82,8.96,7.14c3.42,2.8,6.84,5.61,10.25,8.42c0,0,0-0.01-0.01-0.01
		c1.94,1.96,4.31,3.28,6.78,4.42c-1.22-0.51-2.43-1.04-3.58-1.64c6.59,5.46,13.18,10.92,19.77,16.37c0-0.01-0.01-0.03-0.01-0.04
		c2.96,2.85,5.92,5.71,8.87,8.56c0-0.02-0.01-0.05-0.01-0.07c0.47,0.67,0.95,1.35,1.42,2.02c-0.19,0.35-0.11,0.61,0.25,0.79
		c4.44,11.82-1.51,23.72-13.09,28.89c-3.88,0.04-7.76,0.07-11.64,0.11c0.66,0.99,1.32,1.69,1.98,2.21
		c-0.78-0.56-1.57-1.38-2.36-2.52l-0.48,0.11c-1.14-0.46-2.27-0.93-3.41-1.38c-1.9-1.03-3.82-2.04-5.75-3.04
		c-2.84-1.5-5.67-3-8.51-4.5l0.02,0.09c-3.46-1.88-6.91-3.76-10.37-5.64c0,0.01,0,0.02,0,0.03c-3.84-1.98-7.69-3.96-11.53-5.94
		c0.01,0.03,0.02,0.05,0.02,0.09c-0.68-0.46-1.44-0.87-2.06-1.43h-0.59c-0.73-0.5-1.64-0.82-2.21-1.51
		c-2.03-0.47-4.1-1.78-5.89-2.89c-0.24-0.02-0.47-0.05-0.71-0.07c-9.29-4.76-18.58-9.51-27.87-14.27c-0.87-0.62-1.69-1.42-2.82-1.46
		l0.01,0c-7.39-11.35,1.38-20.47,4.2-30.41C198.76,366.59,197.65,367.68,196.65,368.79z M289.93,437.93c-1.36,1.04-2.69,2-4.02,2.62
		C287.25,439.89,288.59,438.88,289.93,437.93z M276.02,455.82c-0.65-0.99-1.73-1.59-3.3-1.77
		C274.66,454.22,275.57,454.88,276.02,455.82z M169.39,444.93c0.8,4.65-0.84,9.62-2.49,14.59
		C168.54,454.56,170.19,449.58,169.39,444.93z M177.99,486H175c-6.25-9.24-7.43-33.01-2.85-50.87c-0.74,1.54-1.48,3.08-2.03,4.59
		c0.54-1.56,1.3-3.15,2.07-4.73c4.52-17.5,14.58-29.26,30.81-15.99c30.86,18.82,60.23,23.75,74.87,43.87
		c0.76,7.55,0.35,15.38-5.52,19.92C247.78,493.46,208.54,483.19,177.99,486z M878.75,646.8c-14.38,1.99-42.4-3.15-52.31,5.65
		c-86.89,258.64-451.29,285.46-558.54,28.07l-0.01,0.06c-0.3-1.05-1.5-1.86-1.3-2.95c-8.96-54.12-78.19-7.63-89.95-45.59
		c-7.2-46.67,80.11-13.55,105.98-31.61h-0.06c29.48-17.16,22.01-49.7,25.9-76.1c14.64-93.2,109.1-182.62,203.15-192.17
		c6.75-0.68,7.61,1.05,7.56,7.25c-0.33,41.79-0.15,83.59-0.37,125.39c-0.01,2.4-1.62,6.33-3.41,6.97
		c-65.68,23.46-87.4,53.04-90.28,123.06c-0.1,2.39-2.12,5.89-4.18,6.83c-35.6,15.72-42.19,67.71-13.28,94.22l-0.02-0.02
		c9.71,6.6,21.72,9.84,33.06,12.4c16.03-2.03,32.99-2.89,44.83-15.37c30.26-35.75,17.43-68.85-17.28-95.94
		c-9.63-60.45,61.05-108.28,111.61-70.83c24.2,16.22,37.09,46.33,28.98,73.99c-60.96,35.02-30.76,116.25,34.94,107.75
		c52.08-12.17,61.76-80.65,13.36-106.84c-9.44-68.49-21.85-105.5-92.45-128.74c-1.67-0.58-3.5-3.67-3.51-5.6
		c-0.18-43.48-0.05-86.96-0.2-130.44c-0.02-4.79,1.37-5.28,5.77-4.73c111.88,13.93,203.4,115.89,204.55,228.31
		c-0.15,16.1,7.04,30.17,19.07,40.46c22.54,8.01,45.99,6.45,69.53,6.42c17.45,0.42,46.58-4.99,45.88,20.17
		C906.11,642.91,893.48,648.13,878.75,646.8z"/>
	<path class="st7" d="M387.86,197.62C387.65,197.63,387.69,197.63,387.86,197.62L387.86,197.62z"/>
	<polygon class="st7" points="658.35,319.04 658.35,319.04 658.35,319.04 	"/>
	<path class="st7" d="M172.19,434.99c-0.01,0.05-0.02,0.09-0.04,0.14c0.35-0.74,0.71-1.47,1.04-2.21
		C172.86,433.6,172.53,434.29,172.19,434.99z"/>
	<path class="st7" d="M388.11,197.6c-0.09,0.01-0.18,0.01-0.24,0.01C387.92,197.61,388,197.61,388.11,197.6z"/>
	<path class="st7" d="M388.35,197.59c-0.1,0.01-0.17,0.01-0.24,0.01C388.18,197.6,388.27,197.59,388.35,197.59z"/>
</g>
</svg>
